<svg xmlns="http://www.w3.org/2000/svg" width="1em" height="1em" viewBox="0 0 24 24">
	<g fill="none" stroke="currentColor" stroke-linecap="round" stroke-linejoin="round" stroke-width="1.5" color="currentColor">
		<path d="M4 16.5a3 3 0 0 0 3 3a2.5 2.5 0 0 0 5 0a2.5 2.5 0 1 0 5 0a3 3 0 0 0 2.567-4.553a3.001 3.001 0 0 0 0-5.893A3 3 0 0 0 17 4.5a2.5 2.5 0 1 0-5 0a2.5 2.5 0 0 0-5 0a3 3 0 0 0-2.567 4.553a3.001 3.001 0 0 0 0 5.893A3 3 0 0 0 4 16.5" />
		<path d="m7.5 14.5l1.842-5.526a.694.694 0 0 1 1.316 0L12.5 14.5m3-6v6m-7-2h3" />
	</g>
</svg>